# xmcd
#
# Track frame offsets: 
#        150
#        12678
#        27204
#        40977
#        53679
#        66970
#        79605
#        92186
#        105989
#        120052
#        133864
#        148269
#        160445
#        171489
#        184140
#        195612
#        208627
#        220238
#        232496
#        244651
#        256823
#        268981
#        280965
#        293074
#        304687
#
# Disc length: 4215 seconds
#
# Revision: 4
# Processed by: cddbd v1.5.2PL0 Copyright (c) Steve Scherf et al.
# Submitted via: ExactAudioCopy v0.95b4
#
DISCID=7d107519
DTITLE=Hoosier Hot Shots - Everybody Stomp [disc 2: Hot Lips]
DYEAR=2003
DGENRE=Novelty
TTITLE0=I Wish I Could Shimmy like My Sister Kate
TTITLE1=It Ain't Nobody's Biz'ness What I Do
TTITLE2=Margie
TTITLE3=Hot Lips
TTITLE4=Shake Your Dogs
TTITLE5=Sweet Sue Just You
TTITLE6=Toot Toot Tootsie
TTITLE7=Pick That Bass
TTITLE8=The Coat and the Pants Do All the Work
TTITLE9=I Want a Girl
TTITLE10=I've Got a Bimbo Down on Bamboo Isle
TTITLE11=When You Wore a Tulip
TTITLE12=Farewell Blues
TTITLE13=Down Home Rag
TTITLE14=Meet Me in the Cow Shed
TTITLE15=Oh by Jingo
TTITLE16=You Said Something When You Said Dixie
TTITLE17=The Flat Foot Floogie
TTITLE18=The Girl Friend of the Whirlin' Dervish
TTITLE19=Skeede-Waddle-Dee-Waddle-Do
TTITLE20=How Ya Gonna Keep 'Em Down on the Farm
TTITLE21=Red Hot Fannie
TTITLE22=Swinging with Dora
TTITLE23=The Sheik of Araby
TTITLE24=Wabash Blues
EXTD=Ken Trietsch (1903/1987): guitar, vocals, leader\nPaul "Hezzie" T
EXTD=rietsch (1905/1979): whistle, "zither", washboard, percussion, vo
EXTD=cals\nCharles "Gabe" Ward (1904/1992): clarinet, vocals\nFrank Ke
EXTD=ttering (1909/1973) [left HHS 1943 when drafted], Gil Taylor [joi
EXTD=ned HHS 1943]: bass, vocals\nDisc 2 recorded 1936-06-15/1938-06-0
EXTD=6 in Chicago US-IL.\nSee <http://www.propermusic.com/products.asp
EXTD=?recnumber=70> for session and discographical details.\nCompiled 
EXTD=and annotated by Adam Komorowski - produced for release by Joop Vi
EXTD=sser Productions.\nDigital remastering by Peter Rynston at Tall O
EXTD=rder Mastering.\nDisc 2/4 ("Hot Lips"): Proper Records P1350 (200
EXTD=3), UPC 805520013505.\n4CD: Proper Records PROPERBOX 63 (2003-08,
EXTD=2005), UPC 805520020633.
EXTT0=(A.J. Piron)
EXTT1=(Williams/Grainger/Prince)
EXTT2=(Con Conrad/Benny Davis/Russell J. Robinson)
EXTT3=(Henry Busse/Lou Davis/Henry W.Lange)
EXTT4=(Frank Kettering/Ken Trietsch)
EXTT5=(Will J.Harris/Victor Young)
EXTT6=(Gus Kahn/Ernie Erdman/Dan Russo/Ted Fiorito)
EXTT7=(Al Bernard)
EXTT8=
EXTT9=(Will Dillon/Harry von Tilzer)
EXTT10=
EXTT11=(Jack Mahoney/Percy Wenrich)
EXTT12=(Joseph Paul Mares/Elmer Schoebel)
EXTT13=
EXTT14=
EXTT15=(Lew Brown/Albert von Tilzer)
EXTT16=
EXTT17=(Gaillard/Stewart/Green)
EXTT18=
EXTT19=
EXTT20=
EXTT21=
EXTT22=
EXTT23=(Smith/Snyder/Wheeler)
EXTT24=(Rinle/Meinken)
PLAYORDER=
